<svg width="73" height="73" viewBox="0 0 73 73" fill="none" xmlns="http://www.w3.org/2000/svg">
<path d="M38.4549 19.3524H35.0729C34.7635 19.3524 34.5104 19.6056 34.5104 19.9149V39.272C34.5104 39.4548 34.5947 39.6235 34.7424 39.729L46.365 48.2157C46.6182 48.3985 46.9697 48.3493 47.1525 48.0962L49.1635 45.354C49.3533 45.0938 49.2971 44.7423 49.0439 44.5665L39.0174 37.3173V19.9149C39.0174 19.6056 38.7643 19.3524 38.4549 19.3524ZM53.9096 24.6399L64.9346 27.3329C65.2861 27.4173 65.6307 27.1501 65.6307 26.7915L65.6869 15.436C65.6869 14.9649 65.1455 14.6977 64.7799 14.9931L53.6986 23.6485C53.6149 23.7133 53.5511 23.8004 53.5147 23.8998C53.4782 23.9992 53.4706 24.1069 53.4926 24.2105C53.5147 24.3141 53.5655 24.4093 53.6392 24.4853C53.713 24.5612 53.8067 24.6148 53.9096 24.6399ZM65.701 45.811L61.7143 44.4399C61.5753 44.3923 61.4231 44.4009 61.2904 44.464C61.1577 44.5271 61.0549 44.6396 61.0041 44.7774C60.8705 45.136 60.7299 45.4876 60.5822 45.8391C59.3307 48.7993 57.5377 51.4641 55.2455 53.7493C52.9788 56.0231 50.2924 57.8355 47.3354 59.086C44.272 60.3812 40.9792 61.046 37.6533 61.0407C34.2924 61.0407 31.0369 60.3868 27.9713 59.086C25.0142 57.8355 22.3279 56.0231 20.0611 53.7493C17.776 51.4641 15.983 48.7993 14.7244 45.8391C13.4364 42.7741 12.7765 39.4818 12.7838 36.1571C12.7838 32.7962 13.4377 29.5337 14.7385 26.4681C15.99 23.5079 17.783 20.8431 20.0752 18.5579C22.3419 16.2841 25.0283 14.4717 27.9854 13.2212C31.0369 11.9204 34.2994 11.2665 37.6604 11.2665C41.0213 11.2665 44.2768 11.9204 47.3424 13.2212C50.2994 14.4717 52.9858 16.2841 55.2525 18.5579C55.9697 19.2821 56.6447 20.0345 57.2635 20.829L61.4682 17.5384C55.9346 10.4649 47.3213 5.91571 37.6463 5.92274C20.7994 5.92977 7.27129 19.6126 7.44004 36.4665C7.60879 53.0251 21.0736 66.3915 37.6604 66.3915C50.7033 66.3915 61.8127 58.1227 66.0455 46.5423C66.151 46.247 65.9963 45.9165 65.701 45.811Z" fill="white"/>
</svg>
