<svg width="61" height="61" viewBox="0 0 61 61" fill="none" xmlns="http://www.w3.org/2000/svg">
<g clip-path="url(#clip0_2_150)">
<path d="M20.7773 6.1196C17.2057 7.10392 13.6585 8.17423 10.1385 9.32961C9.81712 9.43372 9.53141 9.62601 9.31395 9.88458C9.09648 10.1432 8.95601 10.4576 8.90854 10.7921C6.83104 26.3809 11.631 37.7546 17.3573 45.2471C19.7817 48.4511 22.6726 51.2737 25.9335 53.6209C27.231 54.5359 28.3785 55.1959 29.2823 55.6196C29.7323 55.8334 30.0998 55.9759 30.381 56.0621C30.504 56.1053 30.6309 56.1366 30.7598 56.1559C30.8872 56.1352 31.0126 56.1038 31.1348 56.0621C31.4198 55.9759 31.7873 55.8334 32.2373 55.6196C33.1373 55.1959 34.2885 54.5321 35.586 53.6209C38.847 51.2736 41.7378 48.451 44.1623 45.2471C49.8885 37.7584 54.6885 26.3809 52.611 10.7921C52.564 10.4574 52.4237 10.1428 52.2061 9.88415C51.9886 9.62551 51.7027 9.43333 51.381 9.32961C48.9398 8.53086 44.8185 7.2296 40.7423 6.12335C36.5798 4.9946 32.751 4.15835 30.7598 4.15835C28.7723 4.15835 24.9398 4.9946 20.7773 6.12335V6.1196ZM19.7798 2.2571C23.8485 1.15085 28.1723 0.157104 30.7598 0.157104C33.3473 0.157104 37.671 1.15085 41.7398 2.2571C45.9023 3.3821 50.0985 4.71335 52.566 5.5196C53.5977 5.8603 54.5123 6.4851 55.2048 7.32223C55.8974 8.15937 56.3397 9.17488 56.481 10.2521C58.716 27.0409 53.5298 39.4834 47.2373 47.7146C44.5689 51.2358 41.3873 54.3366 37.7985 56.9134C36.5576 57.805 35.2429 58.5891 33.8685 59.2571C32.8185 59.7521 31.6898 60.1571 30.7598 60.1571C29.8298 60.1571 28.7048 59.7521 27.651 59.2571C26.2767 58.5891 24.9619 57.805 23.721 56.9134C20.1324 54.3365 16.9507 51.2357 14.2823 47.7146C7.98979 39.4834 2.80354 27.0409 5.03854 10.2521C5.17986 9.17488 5.6222 8.15937 6.31472 7.32223C7.00725 6.4851 7.92188 5.8603 8.95354 5.5196C12.5355 4.34514 16.1453 3.25732 19.7798 2.2571Z" fill="white"/>
<path d="M41.4622 19.4547C41.6368 19.6288 41.7753 19.8357 41.8699 20.0635C41.9644 20.2913 42.013 20.5355 42.013 20.7822C42.013 21.0288 41.9644 21.273 41.8699 21.5008C41.7753 21.7286 41.6368 21.9355 41.4622 22.1097L30.2122 33.3597C30.038 33.5343 29.8311 33.6728 29.6033 33.7673C29.3755 33.8619 29.1313 33.9105 28.8847 33.9105C28.6381 33.9105 28.3939 33.8619 28.1661 33.7673C27.9383 33.6728 27.7314 33.5343 27.5572 33.3597L21.9322 27.7347C21.7579 27.5603 21.6196 27.3534 21.5252 27.1256C21.4309 26.8978 21.3823 26.6537 21.3823 26.4072C21.3823 26.1606 21.4309 25.9165 21.5252 25.6887C21.6196 25.4609 21.7579 25.254 21.9322 25.0797C22.1065 24.9053 22.3135 24.767 22.5413 24.6727C22.769 24.5784 23.0132 24.5298 23.2597 24.5298C23.5062 24.5298 23.7504 24.5784 23.9781 24.6727C24.2059 24.767 24.4129 24.9053 24.5872 25.0797L28.8847 29.3809L38.8072 19.4547C38.9814 19.28 39.1883 19.1415 39.4161 19.047C39.6439 18.9525 39.8881 18.9038 40.1347 18.9038C40.3813 18.9038 40.6255 18.9525 40.8533 19.047C41.0811 19.1415 41.288 19.28 41.4622 19.4547Z" fill="white"/>
</g>
<defs>
<clipPath id="clip0_2_150">
<rect width="60" height="60" fill="white" transform="translate(0.759766 0.157104)"/>
</clipPath>
</defs>
</svg>
