<svg width="64" height="64" viewBox="0 0 64 64" fill="none" xmlns="http://www.w3.org/2000/svg">
<path d="M14.3712 7.27167C13.1181 7.27167 11.9163 7.76948 11.0302 8.65559C10.1441 9.5417 9.64624 10.7435 9.64624 11.9967V52.9467C9.64624 54.1998 10.1441 55.4016 11.0302 56.2877C11.9163 57.1739 13.1181 57.6717 14.3712 57.6717H36.4212C37.6744 57.6717 38.8762 57.1739 39.7623 56.2877C40.6484 55.4016 41.1462 54.1998 41.1462 52.9467V48.2217C41.1462 47.804 40.9803 47.4033 40.6849 47.108C40.3896 46.8126 39.989 46.6467 39.5712 46.6467C38.2703 46.6467 37.4387 46.3254 36.8748 45.9033C36.2984 45.4717 35.8605 44.826 35.5392 43.9408C34.8651 42.0886 34.8462 39.6348 34.8462 37.1967C34.8462 36.9895 34.8053 36.7843 34.7258 36.593C34.6464 36.4016 34.5299 36.2278 34.3832 36.0816L33.4823 35.1775L29.6613 31.3566C28.1903 29.8855 27.7587 28.8996 27.6768 28.3483C27.6138 27.9073 27.7461 27.6112 28.0611 27.3088C28.7352 26.6631 29.2172 26.2252 29.7621 26.0929C30.0866 26.011 30.8268 25.9543 32.1561 27.2836L41.6061 36.7336C41.9015 37.0294 42.3022 37.1957 42.7201 37.196C42.9271 37.1961 43.132 37.1555 43.3233 37.0764C43.5145 36.9974 43.6883 36.8814 43.8348 36.7352C43.9812 36.589 44.0974 36.4153 44.1767 36.2242C44.2561 36.033 44.297 35.8282 44.2971 35.6212C44.2973 35.4143 44.2566 35.2093 44.1776 35.0181C44.0985 34.8268 43.9826 34.653 43.8363 34.5066L41.1462 31.8196V22.0987L49.2102 30.1627C49.6495 30.6014 49.998 31.1224 50.2358 31.6959C50.4736 32.2693 50.5961 32.884 50.5962 33.5049V56.0967C50.5962 56.5144 50.7622 56.915 51.0575 57.2104C51.3529 57.5057 51.7535 57.6717 52.1712 57.6717C52.589 57.6717 52.9896 57.5057 53.2849 57.2104C53.5803 56.915 53.7462 56.5144 53.7462 56.0967V33.5049C53.7458 31.4172 52.9164 29.4152 51.4404 27.9388L41.1462 17.6446V11.9967C41.1462 10.7435 40.6484 9.5417 39.7623 8.65559C38.8762 7.76948 37.6744 7.27167 36.4212 7.27167H14.3712ZM37.9962 18.2967V28.6696L34.3863 25.0566C32.5625 23.2359 30.7512 22.609 29.0156 23.0311C28.6746 23.1153 28.344 23.2368 28.0296 23.3934C26.6216 22.9855 25.1379 22.9107 23.696 23.1748C22.254 23.439 20.8932 24.0349 19.7212 24.9154C18.5492 25.796 17.598 26.9371 16.9428 28.2485C16.2877 29.5599 15.9465 31.0057 15.9462 32.4717C15.9461 34.2985 16.4755 36.0862 17.4703 37.6184C18.4651 39.1506 19.8827 40.3616 21.5515 41.1049C23.2203 41.8481 25.0688 42.0917 26.8731 41.8062C28.6775 41.5207 30.3605 40.7183 31.7183 39.4962C31.7718 41.3169 31.9545 43.3077 32.5782 45.0181C33.0444 46.3002 33.7878 47.5255 34.9848 48.4201L35.0037 48.439C34.0445 48.7407 33.2066 49.3405 32.6117 50.1511C32.0169 50.9618 31.6962 51.9412 31.6962 52.9467V54.5217H19.0962V52.9467C19.0962 51.6935 18.5984 50.4917 17.7123 49.6056C16.8262 48.7195 15.6244 48.2217 14.3712 48.2217H12.7962V16.7217H14.3712C15.6244 16.7217 16.8262 16.2239 17.7123 15.3377C18.5984 14.4516 19.0962 13.2498 19.0962 11.9967V10.4217H31.6962V11.9967C31.6962 13.2498 32.194 14.4516 33.0802 15.3377C33.9663 16.2239 35.1681 16.7217 36.4212 16.7217H37.9962V18.2967ZM37.9962 52.9467V52.975C37.9888 53.3878 37.8196 53.7812 37.525 54.0704C37.2305 54.3597 36.8341 54.5217 36.4212 54.5217H34.8462V52.9467C34.8462 52.529 35.0122 52.1283 35.3075 51.833C35.6029 51.5376 36.0035 51.3717 36.4212 51.3717H37.9962V52.9467ZM19.0962 32.4717C19.0963 30.8695 19.7067 29.3276 20.8033 28.1596C21.8999 26.9915 23.4004 26.2852 24.9993 26.1843C24.6087 26.9088 24.4103 27.7908 24.5615 28.8082C24.7851 30.3265 25.7522 31.9047 27.4311 33.5836L30.2882 36.4407C29.468 37.4514 28.3549 38.1833 27.1018 38.5357C25.8488 38.8881 24.5174 38.8437 23.2906 38.4086C22.0638 37.9736 21.0018 37.1692 20.2508 36.1061C19.4997 35.043 19.0964 33.7733 19.0962 32.4717ZM15.9462 10.4217V11.9967C15.9462 12.4144 15.7803 12.815 15.4849 13.1104C15.1896 13.4057 14.789 13.5717 14.3712 13.5717H12.7962V11.9967C12.7962 11.579 12.9622 11.1783 13.2575 10.883C13.5529 10.5876 13.9535 10.4217 14.3712 10.4217H15.9462ZM12.7962 51.3717H14.3712C14.789 51.3717 15.1896 51.5376 15.4849 51.833C15.7803 52.1283 15.9462 52.529 15.9462 52.9467V54.5217H14.3712C13.9535 54.5217 13.5529 54.3557 13.2575 54.0604C12.9622 53.765 12.7962 53.3644 12.7962 52.9467V51.3717ZM37.9962 13.5717H36.4212C36.0035 13.5717 35.6029 13.4057 35.3075 13.1104C35.0122 12.815 34.8462 12.4144 34.8462 11.9967V10.4217H36.4212C36.839 10.4217 37.2396 10.5876 37.5349 10.883C37.8303 11.1783 37.9962 11.579 37.9962 11.9967V13.5717Z" fill="#0B6EFD"/>
</svg>
