<svg width="65" height="65" viewBox="0 0 65 65" fill="none" xmlns="http://www.w3.org/2000/svg">
<path d="M14.4854 29.0431C14.4854 27.5276 15.0875 26.0741 16.1591 25.0025C17.2308 23.9309 18.6842 23.3288 20.1997 23.3288C21.7152 23.3288 23.1687 23.9309 24.2403 25.0025C25.312 26.0741 25.914 27.5276 25.914 29.0431C25.914 30.5586 25.312 32.0121 24.2403 33.0837C23.1687 34.1554 21.7152 34.7574 20.1997 34.7574C18.6842 34.7574 17.2308 34.1554 16.1591 33.0837C15.0875 32.0121 14.4854 30.5586 14.4854 29.0431ZM20.1997 26.7574C19.5935 26.7574 19.0121 26.9982 18.5835 27.4269C18.1548 27.8555 17.914 28.4369 17.914 29.0431C17.914 29.6493 18.1548 30.2307 18.5835 30.6594C19.0121 31.088 19.5935 31.3288 20.1997 31.3288C20.8059 31.3288 21.3873 31.088 21.816 30.6594C22.2446 30.2307 22.4854 29.6493 22.4854 29.0431C22.4854 28.4369 22.2446 27.8555 21.816 27.4269C21.3873 26.9982 20.8059 26.7574 20.1997 26.7574ZM20.1997 39.3288C18.6842 39.3288 17.2308 39.9309 16.1591 41.0025C15.0875 42.0741 14.4854 43.5276 14.4854 45.0431C14.4854 46.5586 15.0875 48.0121 16.1591 49.0837C17.2308 50.1554 18.6842 50.7574 20.1997 50.7574C21.7152 50.7574 23.1687 50.1554 24.2403 49.0837C25.312 48.0121 25.914 46.5586 25.914 45.0431C25.914 43.5276 25.312 42.0741 24.2403 41.0025C23.1687 39.9309 21.7152 39.3288 20.1997 39.3288ZM17.914 45.0431C17.914 44.4369 18.1548 43.8555 18.5835 43.4269C19.0121 42.9982 19.5935 42.7574 20.1997 42.7574C20.8059 42.7574 21.3873 42.9982 21.816 43.4269C22.2446 43.8555 22.4854 44.4369 22.4854 45.0431C22.4854 45.6493 22.2446 46.2307 21.816 46.6594C21.3873 47.088 20.8059 47.3288 20.1997 47.3288C19.5935 47.3288 19.0121 47.088 18.5835 46.6594C18.1548 46.2307 17.914 45.6493 17.914 45.0431ZM30.4854 28.4717C30.4854 28.017 30.666 27.581 30.9875 27.2595C31.309 26.938 31.7451 26.7574 32.1997 26.7574H49.3426C49.7972 26.7574 50.2333 26.938 50.5548 27.2595C50.8763 27.581 51.0569 28.017 51.0569 28.4717C51.0569 28.9263 50.8763 29.3624 50.5548 29.6839C50.2333 30.0054 49.7972 30.186 49.3426 30.186H32.1997C31.7451 30.186 31.309 30.0054 30.9875 29.6839C30.666 29.3624 30.4854 28.9263 30.4854 28.4717ZM32.1997 42.7574C31.7451 42.7574 31.309 42.938 30.9875 43.2595C30.666 43.581 30.4854 44.017 30.4854 44.4717C30.4854 44.9263 30.666 45.3624 30.9875 45.6839C31.309 46.0054 31.7451 46.186 32.1997 46.186H49.3426C49.7972 46.186 50.2333 46.0054 50.5548 45.6839C50.8763 45.3624 51.0569 44.9263 51.0569 44.4717C51.0569 44.017 50.8763 43.581 50.5548 43.2595C50.2333 42.938 49.7972 42.7574 49.3426 42.7574H32.1997ZM14.4854 17.0431C14.4854 16.5885 14.666 16.1524 14.9875 15.8309C15.309 15.5094 15.7451 15.3288 16.1997 15.3288H49.3426C49.7972 15.3288 50.2333 15.5094 50.5548 15.8309C50.8763 16.1524 51.0569 16.5885 51.0569 17.0431C51.0569 17.4978 50.8763 17.9338 50.5548 18.2553C50.2333 18.5768 49.7972 18.7574 49.3426 18.7574H16.1997C15.7451 18.7574 15.309 18.5768 14.9875 18.2553C14.666 17.9338 14.4854 17.4978 14.4854 17.0431ZM16.1997 7.32883C13.9264 7.32883 11.7463 8.23189 10.1388 9.83934C8.53135 11.4468 7.6283 13.627 7.6283 15.9003V49.0431C7.6283 51.3164 8.53135 53.4966 10.1388 55.104C11.7463 56.7115 13.9264 57.6145 16.1997 57.6145H49.3426C51.6159 57.6145 53.796 56.7115 55.4035 55.104C57.011 53.4966 57.914 51.3164 57.914 49.0431V15.9003C57.914 13.627 57.011 11.4468 55.4035 9.83934C53.796 8.23189 51.6159 7.32883 49.3426 7.32883H16.1997ZM11.0569 15.9003C11.0569 14.5363 11.5987 13.2282 12.5632 12.2637C13.5276 11.2992 14.8358 10.7574 16.1997 10.7574H49.3426C50.7066 10.7574 52.0147 11.2992 52.9791 12.2637C53.9436 13.2282 54.4854 14.5363 54.4854 15.9003V49.0431C54.4854 50.4071 53.9436 51.7152 52.9791 52.6797C52.0147 53.6441 50.7066 54.186 49.3426 54.186H16.1997C14.8358 54.186 13.5276 53.6441 12.5632 52.6797C11.5987 51.7152 11.0569 50.4071 11.0569 49.0431V15.9003Z" fill="#0B6EFD"/>
</svg>
