<svg width="61" height="61" viewBox="0 0 61 61" fill="none" xmlns="http://www.w3.org/2000/svg">
<path d="M5.76013 40.1571V52.4996C5.76013 55.3496 13.5951 57.6571 23.2601 57.6571C32.9251 57.6571 40.7601 55.3471 40.7601 52.4996V40.1571M23.2601 12.6571C12.2151 12.6571 3.26013 14.8946 3.26013 17.6571C3.26013 20.4196 12.2151 22.6571 23.2601 22.6571M3.26013 17.6571V30.1571C3.26013 32.6896 12.2151 35.1571 23.2601 35.1571M40.7601 40.1571C50.3201 40.1571 58.2601 37.6896 58.2601 35.1571V10.1571M23.6451 10.1571V35.5721M23.2601 22.6571C23.2601 25.1896 31.3926 27.6571 40.9526 27.6571C50.5101 27.6571 58.2601 25.1896 58.2601 22.6571M40.7601 40.1571C40.7601 37.3946 32.9251 35.1571 23.2601 35.1571C13.5951 35.1571 5.76013 37.3946 5.76013 40.1571C5.76013 42.9196 13.5951 45.1571 23.2601 45.1571C32.9251 45.1571 40.7601 42.9196 40.7601 40.1571ZM58.2601 10.1571C58.2601 7.3946 50.5101 5.1571 40.9526 5.1571C31.3926 5.1571 23.6451 7.3946 23.6451 10.1571C23.6451 12.9196 31.3951 15.1571 40.9526 15.1571C50.5101 15.1571 58.2601 12.9196 58.2601 10.1571Z" stroke="white" stroke-width="2"/>
</svg>
