<svg width="64" height="65" viewBox="0 0 64 65" fill="none" xmlns="http://www.w3.org/2000/svg">
<path d="M38.5118 10.0967C38.6157 9.71055 38.8649 9.38141 39.2056 9.18029C39.5463 8.97917 39.9512 8.92221 40.3329 9.02169C43.9194 10.001 47.1896 11.9207 49.8156 14.5884C52.4417 17.2562 54.3314 20.5782 55.2954 24.2217C55.3472 24.4138 55.3609 24.6144 55.3356 24.8119C55.3103 25.0094 55.2466 25.1999 55.1481 25.3721C55.0496 25.5443 54.9183 25.6948 54.7619 25.815C54.6055 25.9351 54.4271 26.0223 54.2372 26.0717L53.868 26.1217C53.5411 26.1212 53.2236 26.0104 52.9652 25.8068C52.7069 25.6032 52.5224 25.3183 52.4407 24.9967C51.6061 21.8653 49.9788 19.0106 47.7207 16.7166C45.4626 14.4227 42.6525 12.7695 39.57 11.9217C39.1953 11.816 38.8755 11.5667 38.6781 11.2263C38.4807 10.8858 38.4211 10.4809 38.5118 10.0967ZM37.5274 19.6467C39.2756 20.1328 40.8689 21.0732 42.1505 22.3752C43.4322 23.6771 44.3578 25.2958 44.8364 27.0717C44.9181 27.3933 45.1026 27.6782 45.3609 27.8818C45.6193 28.0854 45.9368 28.1962 46.2637 28.1967L46.6329 28.1467C47.0095 28.0356 47.3296 27.7814 47.5266 27.4369C47.7237 27.0924 47.7826 26.6841 47.6911 26.2967C47.0831 24.0087 45.895 21.9228 44.2454 20.247C42.5959 18.5713 40.5425 17.3644 38.2903 16.7467C37.9089 16.6538 37.507 16.7136 37.1679 16.9138C36.8288 17.1139 36.5786 17.4391 36.4692 17.8217C36.3719 18.2062 36.4287 18.6143 36.6271 18.9563C36.8254 19.2984 37.1492 19.5467 37.5274 19.6467ZM57.2149 44.1717C56.8024 47.4306 55.2361 50.4256 52.8087 52.5971C50.3813 54.7686 47.2587 55.9682 44.0243 55.9717C24.7552 55.9717 9.07898 40.0467 9.07898 20.4717C9.08246 17.1859 10.2633 14.0138 12.4008 11.5478C14.5384 9.08187 17.4866 7.49076 20.6946 7.07169C21.4328 6.9839 22.1791 7.14096 22.8222 7.51943C23.4653 7.8979 23.9707 8.47749 24.263 9.17168L29.2094 20.8967C29.4338 21.4272 29.5265 22.0056 29.4793 22.581C29.4321 23.1564 29.2465 23.7112 28.9387 24.1967L24.829 30.5467C24.7884 30.6183 24.765 30.6987 24.7607 30.7812C24.7564 30.8637 24.7714 30.9461 24.8044 31.0217C26.6947 34.959 29.832 38.1372 33.713 40.0467C33.7883 40.081 33.8713 40.0945 33.9534 40.0857C34.0355 40.0769 34.1139 40.0462 34.1805 39.9967L40.3575 35.8217C40.8307 35.4987 41.3762 35.302 41.9439 35.2496C42.5116 35.1971 43.0832 35.2907 43.6059 35.5217L55.1477 40.5467C55.8311 40.8436 56.4016 41.357 56.7742 42.0103C57.1467 42.6636 57.3013 43.4218 57.2149 44.1717ZM54.2864 43.7967C54.2948 43.6924 54.2709 43.5881 54.2179 43.4984C54.1649 43.4087 54.0856 43.3382 53.9911 43.2967L42.4493 38.2717C42.373 38.2419 42.2909 38.2309 42.2096 38.2395C42.1283 38.2482 42.0502 38.2764 41.9817 38.3217L35.8294 42.4967C35.3313 42.8291 34.7577 43.0265 34.1633 43.0703C33.5689 43.1141 32.9734 43.0027 32.4333 42.7467C27.9569 40.5329 24.3365 36.8638 22.1466 32.3217C21.8908 31.7795 21.7768 31.1796 21.8156 30.5797C21.8544 29.9798 22.0447 29.4002 22.368 28.8967L26.4532 22.5467C26.502 22.479 26.5322 22.3994 26.5409 22.3159C26.5495 22.2325 26.5362 22.1482 26.5024 22.0717L21.5559 10.3467C21.5182 10.2588 21.4564 10.1838 21.3778 10.1306C21.2993 10.0774 21.2073 10.0483 21.113 10.0467H21.0637C18.5712 10.3795 16.2822 11.6195 14.6213 13.5367C12.9604 15.4538 12.0404 17.9178 12.0321 20.4717C12.0386 29.0892 15.4113 37.3518 21.4096 43.4453C27.4079 49.5388 35.5414 52.9651 44.0243 52.9717C46.5382 52.9632 48.9638 52.0286 50.851 50.3414C52.7381 48.6541 53.9588 46.3288 54.2864 43.7967Z" fill="#0B6EFD"/>
</svg>
